<svg data-bbox="28.398 28.399 143.601 143.597" viewBox="0 0 200 200" height="200" width="200" xmlns="http://www.w3.org/2000/svg" data-type="shape">
    <g>
        <path d="M115.712 107.488c15.128-19.238 13.573-47.369-3.845-64.785-9.223-9.224-21.504-14.304-34.582-14.304s-25.361 5.08-34.584 14.304-14.303 21.505-14.303 34.582 5.08 25.36 14.303 34.582c9.223 9.224 21.504 14.304 34.585 14.304a48.9 48.9 0 0 0 30.201-10.46l56.286 56.285 8.226-8.226-56.286-56.284h-.001Zm-1.152-30.203c0 9.956-3.877 19.317-10.917 26.359-7.041 7.04-16.403 10.917-26.358 10.917s-19.315-3.877-26.357-10.917c-14.532-14.535-14.532-38.181 0-52.714 7.029-7.028 16.391-10.899 26.358-10.899s19.327 3.871 26.357 10.899c7.04 7.041 10.917 16.401 10.917 26.357Z"></path>
    </g>
</svg>