<svg data-bbox="-0.001 -0.001 18 15.501" xmlns="http://www.w3.org/2000/svg" viewBox="0 0 18 16" height="16" width="18" data-type="shape">
    <g>
        <path d="M5.181 1.001c-.254 0-.512.024-.771.072-1.678.315-3.054 1.772-3.346 3.543a4.663 4.663 0 0 0 .197 2.313l.006.018c.904 2.908 5.939 6.452 7.461 7.469a.482.482 0 0 0 .546 0c1.521-1.017 6.552-4.56 7.458-7.469a4.696 4.696 0 0 0 .203-2.331c-.293-1.771-1.669-3.228-3.346-3.543-1.63-.301-3.225.37-4.177 1.761-.187.273-.639.273-.825 0-.801-1.17-2.06-1.833-3.406-1.833ZM9.001 15.5c-.288 0-.577-.084-.829-.252-2.036-1.361-6.876-4.864-7.857-7.995a5.665 5.665 0 0 1-.238-2.799C.443 2.24 2.11.486 4.226.091a5.054 5.054 0 0 1 4.773 1.647A5.068 5.068 0 0 1 13.773.091c2.116.396 3.783 2.149 4.148 4.363a5.67 5.67 0 0 1-.24 2.809c-.97 3.116-5.814 6.623-7.851 7.985a1.494 1.494 0 0 1-.829.252Z" clip-rule="evenodd" fill-rule="evenodd"></path>
    </g>
</svg>